/* XPM */
static char *_5e5b8caa09d4507c7ee0dfe52e84333GWnKNTRMSh5rQOJA[] = {
/* columns rows colors chars-per-pixel */
"32 32 250 2 ",
"   c #601F0B",
".  c #582418",
"X  c #572A15",
"o  c #6B340E",
"O  c #772D16",
"+  c #6B331D",
"@  c #6F391C",
"#  c #743717",
"$  c #622915",
"%  c #5A3425",
"&  c #522F27",
"*  c #652823",
"=  c #732A25",
"-  c #6A372A",
";  c #733A24",
":  c #7B3B27",
">  c #7B3E3C",
",  c #7B3834",
"<  c #643C34",
"1  c #7C411F",
"2  c #6D462C",
"3  c #7B432D",
"4  c #72422D",
"5  c #7C542D",
"6  c #7C443A",
"7  c #7C4A3A",
"8  c #794634",
"9  c #7E5638",
"0  c #774A44",
"q  c #7A5B4C",
"w  c #8D351D",
"e  c #823E2E",
"r  c #873927",
"t  c #873C36",
"y  c #983D22",
"u  c #83452C",
"i  c #85492B",
"p  c #894A2E",
"a  c #86442A",
"s  c #964D2B",
"d  c #9A5A2F",
"f  c #854332",
"g  c #8C4635",
"h  c #844B34",
"j  c #8C4D36",
"k  c #82443D",
"l  c #89453C",
"z  c #844C3B",
"x  c #8B4B3B",
"c  c #934B32",
"v  c #9A4A33",
"b  c #934D3B",
"n  c #9B4C3B",
"m  c #994635",
"M  c #84533C",
"N  c #8B543C",
"B  c #855B3C",
"V  c #8A5638",
"C  c #94553D",
"Z  c #9C543D",
"A  c #955C3B",
"S  c #995638",
"D  c #83562C",
"F  c #A44E28",
"G  c #B1502F",
"H  c #A54936",
"J  c #A2533C",
"K  c #A75A38",
"L  c #B2523E",
"P  c #8E643F",
"I  c #9A633D",
"U  c #AA6335",
"Y  c #B36737",
"T  c #814A42",
"R  c #8A4C43",
"E  c #8A4D4B",
"W  c #994E42",
"Q  c #914E44",
"!  c #8D5543",
"~  c #8C5A43",
"^  c #8C554B",
"/  c #865847",
"(  c #935544",
")  c #9C5542",
"_  c #935B44",
"`  c #9B534B",
"'  c #9B5D4B",
"]  c #985A47",
"[  c #8F5F55",
"{  c #995A53",
"}  c #AA4F45",
"|  c #A55444",
" . c #AC5544",
".. c #A35C44",
"X. c #A45C4A",
"o. c #AB5A4B",
"O. c #A55648",
"+. c #B45441",
"@. c #B25E46",
"#. c #B65C4C",
"$. c #B95B4B",
"%. c #AF5D55",
"&. c #BB5C52",
"*. c #B75F53",
"=. c #8F6042",
"-. c #8D674C",
";. c #926443",
":. c #9C6445",
">. c #94634B",
",. c #9C654B",
"<. c #9E6A4D",
"1. c #986A45",
"2. c #9A6451",
"3. c #946C52",
"4. c #9B6D53",
"5. c #966857",
"6. c #997758",
"7. c #93694E",
"8. c #A26543",
"9. c #AD6243",
"0. c #A5644C",
"q. c #A36C4D",
"w. c #AA6846",
"e. c #B46345",
"r. c #BB6A44",
"t. c #B2644C",
"y. c #B46A4C",
"u. c #BF6B4F",
"i. c #A97246",
"p. c #B8734E",
"a. c #A56654",
"s. c #AA6554",
"d. c #A46B51",
"f. c #A36E5A",
"g. c #AB6A56",
"h. c #B46253",
"j. c #BE6353",
"k. c #BA6C54",
"l. c #BB6E5C",
"z. c #B76857",
"x. c #A47354",
"c. c #A5745B",
"v. c #AE735A",
"b. c #A97758",
"n. c #BE7155",
"m. c #B57559",
"M. c #BD765C",
"N. c #BD7C59",
"B. c #B57956",
"V. c #9A7666",
"C. c #B86D62",
"Z. c #AA7C65",
"A. c #B87963",
"S. c #C25C4D",
"D. c #CC6D4C",
"F. c #C26949",
"G. c #C26255",
"H. c #C66A5C",
"J. c #D56C56",
"K. c #C37155",
"L. c #C97B55",
"P. c #C3735B",
"I. c #C47A5B",
"U. c #CA7C5F",
"Y. c #C47956",
"T. c #DB7555",
"R. c #D67959",
"E. c #CD7246",
"W. c #EA7D5A",
"Q. c #E7785B",
"!. c #F57E5C",
"~. c #C96D62",
"^. c #C27A64",
"/. c #CB7C65",
"(. c #C77867",
"). c #D37C60",
"_. c #D87965",
"`. c #D37F75",
"'. c #E37662",
"]. c #E87C66",
"[. c #FA7D61",
"{. c #9E895C",
"}. c #B1805F",
"|. c #A6805C",
" X c #AB8766",
".X c #BA8764",
"XX c #B28A70",
"oX c #D2825C",
"OX c #DD835A",
"+X c #CF8355",
"@X c #E9875A",
"#X c #F3865D",
"$X c #EB9655",
"%X c #DFA65F",
"&X c #C28965",
"*X c #C8876B",
"=X c #D3836A",
"-X c #D48B68",
";X c #D98966",
":X c #DD936A",
">X c #DD9667",
",X c #D88974",
"<X c #D69278",
"1X c #C98C70",
"2X c #E28463",
"3X c #EC8B65",
"4X c #EB8B6A",
"5X c #E8866A",
"6X c #F68463",
"7X c #F98B66",
"8X c #E5986A",
"9X c #F99468",
"0X c #E78772",
"qX c #F38B74",
"wX c #FA8977",
"eX c #E69676",
"rX c #F89676",
"tX c #DFA36F",
"yX c #C7A87A",
"uX c #E7A96A",
"iX c #F5A86A",
"pX c #EDA275",
"aX c #E8AD7D",
"sX c #F2AB7B",
"dX c #F7A879",
"fX c #FCB77B",
"gX c #F2B96C",
"hX c #FDC07F",
"jX c #FA9D84",
"kX c #EB9E84",
"lX c #EBA886",
"zX c #FDA384",
"xX c #FCAC82",
"cX c #FEAB8A",
"vX c #FAA88D",
"bX c #ECB487",
"nX c #FDB38A",
"mX c #FFBE8B",
"MX c #FAB787",
"NX c #FFBD92",
"BX c #F5BB97",
"VX c #F5AB91",
"CX c #D3B88B",
"ZX c #FEC39D",
"AX c #FFC296",
"SX c #FFC488",
"DX c #FECCA6",
"FX c #FCC8A8",
"GX c #FFD0B1",
"HX c #FFD2AB",
/* pixels */
"f j u 4 8 & > t R ^ k * > & & q T / 5.[ T E * , t = , t = , - & ",
"pXiXfXmXlXy.oX3X'.'.Q.].qXL L vXnXsXmXNXNXnXK r.[.Q.Q.6XQ.].D.F ",
"4.:.B..Xb.3 C 9.@.t.9.#. .c a z.b.b.x.}.&X.X1 p L m v J  . .X.+ ",
"0 . ; : 6 > , e e $ + x e _ ( b k R . z 2._ N j l R * . R R { / ",
"VXe.T.T.qXqX].Q.5Xy H rX5X0X2X'.5X_.w R.4X2XrX@X5XjXe.v qX'.T.0X",
"c.u J v | X...J | O r h.o...) o. .n O n Z Z Z J Z ) : r #.} J | ",
"4.<.<.-.q < ^ Q >.-.>.! x 4 2 / x R z 7 7 T . 6 ! 6 7 ^ l R 6 % ",
"9X9X$XfXtXd 2X7X9X3X3X6XrXF.r.cX#X#X@X@XrXrXG R.9X#XW.6X!.7XE.Y ",
">.5 D q.q.p A d S ..Z C g.j g g.A 8.g b ) ..u u c b ) ) c S a W ",
"0 - ! x Q ` g r j ; V >.=.<.:.V O.l 7 XXV.5.! ` ~ / . - ~ _ ' { ",
"<Xp.pX2X4XjX5X9XdXr.:XNX>XsXdX8XqXF.N.GXFXlXlXcXAXVXv n.cXzXzX0X",
"^ 3 ,.' ] a.a.0.0.C 0.v.] 0.s...b g g ' ] a._ _ :.<.- h ,.:._ ( ",
"W ) A A ; ; b.1.8.N.N.d.v.f x s.' s.a.' ( ! - 7.v c W g p A ; 8 ",
"@X@X$XiX+XY fXgXsXMXMXsXnX9.K.vXzXvXBXFXBX*XK cXwX].wX].4XzXK.t.",
"` g ] d._ h >.1.;.B ;.B >.7 R { 5.5.[ Z.V./ 4 _ x ( E R _ 2.z T ",
"- 2 .Xx.4.Z.,.I :.@ _ d.' s.X.O.{.9   n J X.N.<.1.Z.; 3 C s Z W ",
"o.9.SXuX%XhXiXiXpXY fX9X@X7XW.#XbX>XF 9XW.@XdXsXxXdXY OXrXT.T.Q.",
"0 7 P 5 P =._ A ;.8 >.V N C ( x -.4.M ' b h z f.6.3.9 2.2.' x R ",
"g.B.i.i.j   0.X.x..X,.,.x.@ 3 <.x.b.Z.x.v.:.# 0. X.X1XB.m.^.C ( ",
"eXlXsXNX-Xc lXkXlXDXbXBXDXB..XDXZXZXDXDXHXlXK u.aXZXNX:X=XeXP.k.",
"~ M 1.q.f.~ >.:.4.B 9 >.4.M >.Z.c.c.-. X XZ.] X.6.|.;.M z ! _ 7 ",
"q.# B.8.m.1Xw.i..Xo i B.y.y.y.J p.8.o I 8.p./.).N.p.# s M.9.t.t.",
"N.U pX;XL.eXeX8XpXs Y 8XR.D.D.D.:X>XK +X8XOXOXR.3X3XF r.rX2XJ.'.",
"7 N ,.( R k f.;.<.z ! a.` e t ` ~ c.V h a.x f u g ( 6 7 / k t r ",
"L +.H #.} r k.y.j.=X.XyXCX5 _ ^.p.U.M.M.^.Z r y.H H $.j.o.l.; h ",
"G.&.&.#.}  ./.K.J.).-XbXBX8.y.eXoX:X,X=XP.t.e.oXJ.S.H.H.G.,XO.h.",
"u ; ( x f C j p Z : j P ;.B >.<.,._ ( >.~ ! V i c S p h j ,.] ' ",
"h.n (.`.`.~.&.G./.w J I.p.I.-XI.~.| n l./.=XU.e.t.(.) g.*XA.<X,X",
"X.b z.(.H. .#.H.C.r @.;XK.n.I.M.j. .J k.n.P.k.K.l.^.C m.<X^./.P.",
"M M A :.j : C ) x x b ) ..b i _ C ,.q.x.;.N 3 ( ' ] C C d.0.p a ",
"(.(.=X=XK.@./.H.j.j.+.$._.@.H ).L.oX;X:XoX=X .h.&.&.~.&.$.H. .v ",
"l.l.U.-XY.9.P.P.C.C.o.J P.k.t.,X:XL.Y.Y.B.*Xo.%.%.| *.j. .P.y.S "
};
