/* XPM */
static char *f569980bbefa4ede9fad59b36a72edb3ngQUewvFcpDmGkY8[] = {
/* columns rows colors chars-per-pixel */
"32 32 232 2 ",
"   c #0C0F00",
".  c #030800",
"X  c #011400",
"o  c #021B00",
"O  c #0B1A00",
"+  c #0C1600",
"@  c #141D00",
"#  c #181700",
"$  c #221600",
"%  c #032600",
"&  c #0F2300",
"*  c #0E2C00",
"=  c #002F00",
"-  c #112300",
";  c #1A2200",
":  c #142A00",
">  c #1B2B00",
",  c #0D3200",
"<  c #0C3C00",
"1  c #063500",
"2  c #133400",
"3  c #1E3500",
"4  c #1A3C00",
"5  c #153B00",
"6  c #292500",
"7  c #232C00",
"8  c #262500",
"9  c #243301",
"0  c #2B3301",
"q  c #253B00",
"w  c #34370F",
"e  c #443A17",
"r  c #1B4800",
"t  c #195300",
"y  c #2A4200",
"u  c #2A4C05",
"i  c #374808",
"p  c #345D0C",
"a  c #365208",
"s  c #3D4713",
"d  c #3E5310",
"f  c #285A00",
"g  c #43470A",
"h  c #45550E",
"j  c #46461A",
"k  c #475618",
"l  c #534514",
"z  c #4C6B19",
"x  c #4A7513",
"c  c #4B4924",
"v  c #4B5923",
"b  c #6D5B39",
"n  c #577A29",
"m  c #5E7E32",
"M  c #596A29",
"N  c #63642C",
"B  c #626836",
"V  c #6A7739",
"C  c #73703A",
"Z  c #78623B",
"A  c #7E7E4A",
"S  c #767348",
"D  c #776F48",
"F  c #937E4F",
"G  c #8E6F53",
"H  c #966C55",
"J  c #887956",
"K  c #957B54",
"L  c #997D52",
"P  c #9B745C",
"I  c #957A5C",
"U  c #9B7B5C",
"Y  c #917556",
"T  c #877245",
"R  c #A27C5D",
"E  c #A57A5E",
"W  c #9F6F65",
"Q  c #8E7E64",
"!  c #977C64",
"~  c #9C7C63",
"^  c #9C7D6A",
"/  c #9D7566",
"(  c #A37C63",
")  c #A97C64",
"_  c #A37C6A",
"`  c #AC7E6B",
"'  c #A57566",
"]  c #B37C6E",
"[  c #AB7D73",
"{  c #A77C75",
"}  c #B27F71",
"|  c #4D881A",
" . c #598634",
".. c #688535",
"X. c #699437",
"o. c #61A02E",
"O. c #71B32F",
"+. c #6BAD3B",
"@. c #6AA634",
"#. c #73AC3B",
"$. c #71AA37",
"%. c #6CB238",
"&. c #73B73A",
"*. c #7FC139",
"=. c #778346",
"-. c #729141",
";. c #7E965A",
":. c #74A445",
">. c #7CAA45",
",. c #76AB43",
"<. c #7BBB43",
"1. c #73B34C",
"2. c #7AB74B",
"3. c #7ABB4B",
"4. c #76B846",
"5. c #7CA955",
"6. c #7CB254",
"7. c #7AB756",
"8. c #6FB842",
"9. c #7CC245",
"0. c #79C14A",
"q. c #819247",
"w. c #849A4F",
"e. c #8B8554",
"r. c #8B8C55",
"t. c #8E8B5B",
"y. c #848556",
"u. c #928555",
"i. c #94845A",
"p. c #9C845C",
"a. c #948B5D",
"s. c #9C885A",
"d. c #879957",
"f. c #97925D",
"g. c #948A4F",
"h. c #A2835E",
"j. c #AA8B5F",
"k. c #A7985D",
"l. c #82A84B",
"z. c #82B54C",
"x. c #8ABC4D",
"c. c #84B947",
"v. c #85A957",
"b. c #93AC5B",
"n. c #8AB354",
"m. c #85BD54",
"M. c #8DBA55",
"N. c #85B65E",
"B. c #86BD5B",
"V. c #8BBC5C",
"C. c #86B457",
"Z. c #92B95D",
"A. c #8E8664",
"S. c #958462",
"D. c #9C8563",
"F. c #9C8B64",
"G. c #94856A",
"H. c #9D836B",
"J. c #9D8A6B",
"K. c #948E67",
"L. c #8D9965",
"P. c #949264",
"I. c #9C9263",
"U. c #9E926C",
"Y. c #999D65",
"T. c #9C9674",
"R. c #A48363",
"E. c #AA8365",
"W. c #A38A64",
"Q. c #AB8A65",
"!. c #A4836B",
"~. c #AA846A",
"^. c #A48C6B",
"/. c #AB8B6C",
"(. c #B18A6D",
"). c #B2846D",
"_. c #A29266",
"`. c #A4926D",
"'. c #AD946E",
"]. c #A59A6A",
"[. c #B3956B",
"{. c #A48671",
"}. c #AC8472",
"|. c #A48C72",
" X c #AC8B73",
".X c #AD837B",
"XX c #AB8E7C",
"oX c #B28674",
"OX c #B48C73",
"+X c #B48D7B",
"@X c #B88779",
"#X c #AB9373",
"$X c #AC9B75",
"%X c #A4927A",
"&X c #AB947A",
"*X c #A49775",
"=X c #B19174",
"-X c #B49E73",
";X c #B3957C",
":X c #B4997C",
">X c #B99877",
",X c #8BAC64",
"<X c #8EA667",
"1X c #9BA46C",
"2X c #95A769",
"3X c #8EB162",
"4X c #8CBC63",
"5X c #89B665",
"6X c #92B462",
"7X c #97B867",
"8X c #98A972",
"9X c #9DB577",
"0X c #A5B96D",
"qX c #AAA37B",
"wX c #AAA777",
"eX c #B1A47D",
"rX c #B7AB79",
"tX c #A8BB79",
"yX c #A1A96D",
"uX c #85C54C",
"iX c #8CC35C",
"pX c #86C456",
"aX c #95C75A",
"sX c #95C666",
"dX c #82C166",
"fX c #B87583",
"gX c #AD9B82",
"hX c #B28787",
"jX c #B7AB86",
"kX c #B6B785",
"lX c #ABBA83",
"zX c #BBCF90",
/* pixels */
"/ }.I L (.P {.! F.I U oX' +Xj s w c gX! XXH.{.[ @X] ] }.!  X!.` ",
"_ ^ I R.R.H _ H.F.i.W.~  X:X  d.L.; A.`.S.J.H._ ' @X] H &X!.OXP ",
"_ P i._.U _ }.!.D.F.i.I.`.r.: v.v.q =.e.a.wXt.^.~.OX(  XD.#X( ~.",
"W ~ i.a.I +X[ _ D.f.A i O h x M.4X .y 9 9 k 1XY.'.Q.>X^.S.S.~.(.",
"E ~.u.e.I {.W ` W.wXM m 3X:.uX&.3.1.M.l.l.z o M ].T i.W.`.^.E.E.",
"( E.u.t.S.! _ +Xl h v.4XN.B.<.&.%.uXx.M.z.4X3Xd 6 rXp.s.i.i./.(.",
") ( i.I.F.D. XZ 0 7XsX:.6.6.| <.3.o.#.M.n.5.,X9XC $ _.-XF.'.R E.",
"} ( p.a.i.J.F.# b.>.z.sXp % 1 m.iX< , 2 n 9X<X8X# i.F.W.F.D.(.E.",
".X_ R.p.p.F.C i M.$.m.n y zXo 7X4X4 w.d.i : 8Xj b D.#XD.^.`.Q.E ",
"_ / E.R.p._.N n m.4.iXo L.L.- <X<Xy Y.r.yXS ; 6 |.;X XR.F.F.R.(.",
"}._ /.Q.U i.k ..4.&.c.% 1XkXO 9X9X9 t.].K.*XT.gXXX+X{.!.^.^.E.Q.",
"_ ~ R.R I D.B m 2.9.iXu V tXX 9X8X9 A jXU.S.%X{._ oXoX!.^.$X/.U ",
"!.U h.U ( H.J i V.+.@.sX2 y 2 ,X,Xy d.t.P.qXJ.;X}.@X@X!.D.`./.R.",
"Q.p._.D.{.^ ^ 8 6Xz.uX+.V.X.f sXN., =.1XY.P.J  X+X] ~. X^.D.W.Q.",
"L F f.S.{..X.Xb > M.<.0.4.%.9.&.2.X.a O 0 A qX^.OX' ` =X`.F.W.W.",
"s.s.I.D.^ [ [  XN o >.2.pX3.<.%.4.3.l.7X-.V V S >X/.(./.F.^.'.R.",
"i.K W.R.P }.+X~ #Xe.8 9 ..v.B.4.&.9.3.1.pX1.5.a qX#X/.p.-X[.) ).",
"W.W.R ) OX) ~ #XI #XW.p.g O p B.<.uXm.2.1.7.1.5Xd S $XW.K h.) oX",
"W.h.Q.).) `  XH.:X!.Q.W.wXyXX V.4.t u ..6XC.4.m.6X. $X#X^.^. X+X",
"L K (.(.P ~.;X! ^.D.=XK u.kXo 7XiXr B s @ Z.c.&.aXa C *XG.^.!. X",
"K U R E.OXR.! &XJ.`.p.'._.t.k ,X4X5 *X%Xe.; x.O.$.X.v T.Q %X!.H.",
"h.h.h.) E./.J.A.e eX^.p._.r.tX3X5X2 G.XXeX; c.*.aXx k T.%X&X|.|.",
"Q.h./.E.P #XK.c c . a.].f.0X% 5.N.u K.G.I.- aXO.#.X.k T.G.H.{.&X",
"R.Q.R ( =X`.B 0 lXL.@ g q.0Xo sX4X2 L.qXh z #.<.aX3 y.U.J.^.;X_ ",
"~ ( U ~.^.D 7 8X2Xd.tX..2 < = 3.m.r k * p V.2.z.,X# qXF.p.^.}.oX",
"( ~.~.U #XD + ;.<XtXw.7Xl.>.+.8.<.x n 5.7.6.7.7X7 J /.U -Xp.OX` ",
"!.!.P /.D.qX8X& a v.b.b.n.,.4.0.<.x.:.sX7.dX7.u c  X XQ.Q.j.(.] ",
"!.~ ( ~.:XJ y.1XM & h q.7XZ.iX+.c.x.C.v.5. ., v gX/ +X+XL [.E.~.",
"#XY ~.P ( ^.*XP.r.f.C 6 @ y p 4Xz.X.d w > q <XP.|.+X@XoXQ.h.Q.R.",
"Y U ) ~.+XU D.J $Xp.^.-XF.Y.: 3XC.5 S J *XeXY.f.D.}..X[ ;XD.W.W.",
"D.I (.H ) (.G  XU R.OXP !.jX  2X7X3 XXhX{ }.s.g.'.I .X.X{.^.F._.",
"p.R.R E.) E OXU !.` ` } oX|.w 9 * > hXfXfX} L k.u.#X.X{ ^ J.U.I."
};
