/* XPM */
static char *_e1d84f19e854342bfccceb523eff453KMvjoObMLvZ5FVRK[] = {
/* columns rows colors chars-per-pixel */
"32 32 237 2 ",
"   c #DA000C",
".  c #CE0013",
"X  c #DC0117",
"o  c #D5031D",
"O  c #DC021B",
"+  c #D80B10",
"@  c #D9101A",
"#  c #E3000B",
"$  c #EB010B",
"%  c #EA0000",
"&  c #E40214",
"*  c #EB0215",
"=  c #E4021C",
"-  c #EA011B",
";  c #E50B1B",
":  c #E90B1D",
">  c #F20112",
",  c #F3001D",
"<  c #FE001D",
"1  c #FD0016",
"2  c #DB0222",
"3  c #D40A25",
"4  c #DD0A25",
"5  c #DC022A",
"6  c #DF0B2B",
"7  c #D70626",
"8  c #DE122C",
"9  c #D5172C",
"0  c #CB0D31",
"q  c #DC0C33",
"w  c #D40734",
"e  c #D71834",
"r  c #E50223",
"t  c #EA0224",
"y  c #EC0A23",
"u  c #E4022A",
"i  c #EC032B",
"p  c #E50B2D",
"a  c #EA0F2D",
"s  c #E40B26",
"d  c #F30222",
"f  c #FE0223",
"g  c #F10C24",
"h  c #FF052B",
"j  c #F60925",
"k  c #E5132D",
"l  c #EC142C",
"z  c #F4162F",
"x  c #EC0435",
"c  c #E90637",
"v  c #F6003E",
"b  c #E31233",
"n  c #E91135",
"m  c #EC153D",
"M  c #E61739",
"N  c #F51F3D",
"B  c #F5173B",
"V  c #DB2B3E",
"C  c #E3213B",
"Z  c #DD1D47",
"A  c #E51B41",
"S  c #E91947",
"D  c #F81C48",
"F  c #DA2547",
"G  c #DF3E4E",
"H  c #DA3954",
"J  c #CD2848",
"K  c #E52344",
"L  c #EC2444",
"P  c #ED274A",
"I  c #E62B44",
"U  c #F52C44",
"Y  c #F92849",
"T  c #E43244",
"R  c #E6354C",
"E  c #EA324D",
"W  c #EA394B",
"Q  c #E73549",
"!  c #F5304E",
"~  c #E92954",
"^  c #F32B52",
"/  c #EB3453",
"(  c #EB3852",
")  c #E53B56",
"_  c #F33557",
"`  c #DC4958",
"'  c #EB4152",
"]  c #E84558",
"[  c #F4445B",
"{  c #F44355",
"}  c #EB545D",
"|  c #FD5757",
" . c #EC4D65",
".. c #EA4B69",
"X. c #E44E69",
"o. c #F24D6A",
"O. c #F84A69",
"+. c #EC576C",
"@. c #F4526C",
"#. c #F25067",
"$. c #F24D77",
"%. c #F45374",
"&. c #F85C71",
"*. c #CA6269",
"=. c #DF6771",
"-. c #DF7579",
";. c #EE6D78",
":. c #FB6C73",
">. c #F76E7B",
",. c #FA6B7F",
"<. c #F86772",
"1. c #E57472",
"2. c #E5747D",
"3. c #EE7C79",
"4. c #F2747C",
"5. c #F17C7D",
"6. c #F9747B",
"7. c #FC6885",
"8. c #EE7C85",
"9. c #E67584",
"0. c #F37484",
"q. c #FE7482",
"w. c #F37A85",
"e. c #FD7A84",
"r. c #F47D8C",
"t. c #FB7B89",
"y. c #F6718E",
"u. c #DD8D98",
"i. c #EC8589",
"p. c #EB8C89",
"a. c #E98583",
"s. c #F18585",
"d. c #F08A84",
"f. c #F3818A",
"g. c #FF868A",
"h. c #F38B8D",
"j. c #FC8F8E",
"k. c #FC8783",
"l. c #E8958B",
"z. c #F7918E",
"x. c #ED8593",
"c. c #E98E95",
"v. c #F48494",
"b. c #F38D93",
"n. c #F98992",
"m. c #F58D9E",
"M. c #FB8798",
"N. c #ED9392",
"B. c #ED9C9B",
"V. c #E99696",
"C. c #F39396",
"Z. c #FC939B",
"A. c #F69A9C",
"S. c #FC9D9F",
"D. c #FA9198",
"F. c #DDA09D",
"G. c #E8A19D",
"H. c #F4A09E",
"J. c #F8A09F",
"K. c #EC8FA2",
"L. c #EC95A2",
"P. c #E49EA0",
"I. c #EB98AB",
"U. c #FD96A3",
"Y. c #F59BA2",
"T. c #FB9EA3",
"R. c #F79AAA",
"E. c #EE9AB1",
"W. c #FA9EB3",
"Q. c #DEA7A2",
"!. c #E7A4A4",
"~. c #EAA3AD",
"^. c #EAACAC",
"/. c #E6A9A7",
"(. c #F3A2A4",
"). c #FAA2A4",
"_. c #F4A4AC",
"`. c #FFA6AC",
"'. c #F4ABAD",
"]. c #F7AAAB",
"[. c #F1B2AB",
"{. c #ECAEB3",
"}. c #EBADB9",
"|. c #E9AAB3",
" X c #FDA4B3",
".X c #F4ACB4",
"XX c #FEAEB3",
"oX c #F6A6B6",
"OX c #E6B7BB",
"+X c #F3B1B1",
"@X c #FBB3B6",
"#X c #F9BAB8",
"$X c #E9C3AC",
"%X c #F3C3AF",
"&X c #EDC6BE",
"*X c #F9C5BC",
"=X c #FAB7C2",
"-X c #E9B7C2",
";X c #ECC8CE",
":X c #FCCCC4",
">X c #FEC2CC",
",X c #FFCBCC",
"<X c #FFC2C4",
"1X c #FAD4C9",
"2X c #FECCD3",
"3X c #F2CFD5",
"4X c #F6D3D1",
"5X c #FFD3D5",
"6X c #FFDAD4",
"7X c #F2D7DA",
"8X c #FED2D8",
"9X c #FFD8D8",
"0X c #E7D9D6",
"qX c #FFEEDE",
"wX c #FCE4DA",
"eX c #F1FADD",
"rX c #FEDDE2",
"tX c #FFD3F0",
"yX c #FCEAE7",
"uX c #FFFBEE",
"iX c #FCF7E9",
"pX c #FFEAF4",
"aX c #FFEEFF",
"sX c #ECFFFD",
"dX c #E1FFFF",
"fX c #F7F7F4",
"gX c #FEF5F4",
"hX c #F3FEF4",
"jX c #FCFEF4",
"kX c #FFF4FD",
"lX c #F4FFFE",
"zX c #FFFEFA",
"xX c #FFF9FF",
"cX c #F9FFFF",
"vX c #FEFEFF",
"bX c #FDFDFD",
"nX c #F3F6FB",
/* pixels */
"kX~.`.+X|.^.'..X X}.OX!.+XW.}. X].{.oX.X+XF.]..XoX_.^.!.@XR.I.pX",
";X2.:.6.t.e.4.5.q.0.0.e.e.w.9.e.e.q.8.w.e.e.f.4.w.w.k.e.e.>.9.&X",
"~.Q y = t f * - r t , d - 8 t = O = 8 2 = - 4 r - - , , = 6 ( V.",
"`.N * 4 r d & - 3 & t 2 t = < d u s d = i r d j - - * - s r N j.",
"L.b E N.B.C.l.l.N.W s.b.v.e , W m.N.4 ` Z.c.m } V.B.b.b.A.) n s.",
"L.q &.jXvXzXjXjXuX+.:XzXzX` 2 C.zXqXu h.gXzXA z.jXjXjXjXjXr.q p.",
"Y.r #.zXcXkXvXxXgXS v.vXxX+.& *XzX+X, b.jXvXw z.vXcXkXzXjX0.5 d.",
"S.t #.zXcXxXlXvXzXx +.cXcXj.O eXlX*.f p.jXkXF p.cXcXxXvXjX7.t k.",
"Y.3 +.xXnXjXhXsXzXC b lXcXR.F zXcXz > m.cXgXw Z.uXcXaXlXuXr.5 g.",
"T.r ..cXcX6X1XrX2XY k yXvX2Xx.vX7X= $ v.cXzXA >.yXcXcXlXwX,.q d.",
"U.r ..vXkX .o x J = = >XxXfXyXvXoX& $ n.vXzXL V ) 7XvXOXH m m 5.",
"T.t ..lXxX'   d 5 g , v.vXlXlXxX,.* & n.vXzX! X r 4XcX_.o t U j.",
"G.r o.cXpX[ = r p y < ` jXnXcXkX! * & h.zXzX_ $ j 4XsXXXt = V a.",
"T.r o.lXsX*X%X&X{ r f 9 qXxXxXpXn - & h.zXzX( $ = 9XcX`.* = T s.",
"S.2 o.vXcXgXjXvX:.r y X #XzXzX-Xr - = h.zXvX) $ a 5XlXXX- - I v.",
"S.2  .xXlXvXlXlX1.- k - i.zXcXI.r y t h.zXxXH $ 4 2XcX@X- - K v.",
").o @.xXcXzXlXdX;.& j i I.cXhX0Xq 1 $ h.vXvXR $ r 8XcX[.- t P s.",
"J.o  .cXlXyXuXvX>.* * u >XvXzXgXZ > $ i.vXxX( $ r 8XcX[.- t P s.",
"T.t O.cXvXZ.6.f.R & - P gXxXzXcX..- $ i.vXxX( $ r 8XcX[.- t P s.",
"'.r o.sXzXG   O p g &  .zXcXxXcXM.O > h.vXvX( $ r 8XcX[.- t P s.",
"T.t O.cXzX' & g t z = Y.zXfXkXvX=Xo > h.vXvX/ $ r 8XcX[.- t P s.",
"^.5 @.vXpX] X 2 e 2 2 4XhX}.3XvXrX9 $ h.cXvX/ * r 8XcX[.- t P s.",
"`.u o.vXcX:X*X,X=XD A iXjX$.{.zXfX' $ s.cXvXE * r 8XcX[.- t P s.",
"Y.2 +.vXcXgXuXcXhXS ~ jXjXv c.jXlX<.> s.cXvXE & r 8XcX[.- r P s.",
"!.t ] jXcXvXjXjXzXM %.cXrX+ | sXjX$X. g.gXsXW % w 6XjX[.d & U a.",
"`.i  .zXcXkXkXkXvXZ R.cXoX= N lXxXwX0 y.kXcX~ & x 5XhX#Xt = I x.",
"R.u +.zXsXlXlXlXjX` wXcXx.& t jXcXuXK 7.vXlX_ t c yXhX#Xr t P v.",
"Y.p [ <X2X2X5X,X#X<.#X>XX.= = u.9X,X^ %.2X;X/ r 5 XX,XD.r r K r.",
"`.l * k u t = O 6 t a m t f f x 7 M d i b 8 , h h n 5 p f j L w.",
"'.T : & - * * & = ; * = X ; @ - > # : ; # # & & o O d = O . F Z.",
"-X=.:.>.e.5.3.1.t.8.w.t.8.-.2.M.a.2.r.r.5.5.s.9.a.5.q.4.s.0.9.^.",
"tXK.).(.|./._.R.(.Y.Q.P.(.Y.U.P.H.~.E.m.J.D.U.E.Z.A.Y.(.B.Y.L.rX"
};
