/* XPM */
static char *_d2ed1d9e36d43e49f10ef44dd0f8115f5tANXUHQlsttrfR[] = {
/* columns rows colors chars-per-pixel */
"32 32 223 2 ",
"   c #7FEF6F",
".  c #7DF56C",
"X  c #7CE575",
"o  c #7EEF79",
"O  c #6CF67C",
"+  c #77F371",
"@  c #7AF574",
"#  c #7CFC76",
"$  c #74F67D",
"%  c #7DF57B",
"&  c #75FD7D",
"*  c #7CFB7C",
"=  c #8DDE78",
"-  c #94D776",
";  c #94D57A",
":  c #93DD7C",
">  c #9ADC7C",
",  c #99D47A",
"<  c #A5C876",
"1  c #A1CA7B",
"2  c #8FF36F",
"3  c #81ED72",
"4  c #8AEF75",
"5  c #81E77B",
"6  c #8DE67F",
"7  c #84ED7C",
"8  c #8BEC7C",
"9  c #8AE271",
"0  c #91E077",
"q  c #96E27B",
"w  c #93EB7C",
"e  c #99E17D",
"r  c #82F375",
"t  c #8AF374",
"y  c #82FA75",
"u  c #89FA74",
"i  c #84F47C",
"p  c #8AF27D",
"a  c #83FA7D",
"s  c #89F87C",
"d  c #91F777",
"f  c #92F37C",
"g  c #90F87F",
"h  c #7FEE83",
"j  c #7DF582",
"k  c #74FB83",
"l  c #7CFA83",
"z  c #77F38B",
"x  c #7EF48C",
"c  c #7DFA89",
"v  c #75FB88",
"b  c #77F490",
"n  c #79FC94",
"m  c #7FF49C",
"M  c #B3BD89",
"N  c #86D883",
"B  c #9CD685",
"V  c #95DC84",
"C  c #9ADD83",
"Z  c #95DC8E",
"A  c #9ADC8D",
"S  c #99D48A",
"D  c #9ADA93",
"F  c #99DF99",
"G  c #A7C889",
"H  c #A8D487",
"J  c #AFD08B",
"K  c #A4DC8B",
"L  c #A6CF97",
"P  c #A9D097",
"I  c #A5DB97",
"U  c #A2D69B",
"Y  c #A0DD9A",
"T  c #A5D393",
"R  c #B4DA98",
"E  c #86E382",
"W  c #8DE585",
"Q  c #85EE82",
"!  c #8CED84",
"~  c #86E788",
"^  c #84EE8A",
"/  c #8BED8B",
"(  c #93E481",
")  c #9AE584",
"_  c #91EA83",
"`  c #95E58B",
"'  c #9AE18B",
"]  c #93EA8B",
"[  c #9BE984",
"{  c #84F483",
"}  c #8BF384",
"|  c #82FA83",
" . c #8BFA84",
".. c #84F48B",
"X. c #8BF48B",
"o. c #85FC89",
"O. c #8BF98A",
"+. c #92F386",
"@. c #91F18C",
"#. c #96F783",
"$. c #8CED92",
"%. c #84EC95",
"&. c #92E792",
"*. c #9CE494",
"=. c #95EB95",
"-. c #99ED94",
";. c #95E69A",
":. c #99EF98",
">. c #96EA9C",
",. c #83F194",
"<. c #8BF293",
"1. c #81FF93",
"2. c #8FF891",
"3. c #80F59C",
"4. c #9DF494",
"5. c #95F093",
"6. c #A1EC87",
"7. c #A0E08A",
"8. c #A3E78A",
"9. c #A3E19B",
"0. c #A9E79B",
"q. c #A5E997",
"w. c #A6F192",
"e. c #B5E694",
"r. c #A9DFAE",
"t. c #A2DDA3",
"y. c #B6DBA7",
"u. c #BBDAAE",
"i. c #BBD4B4",
"p. c #99E6A2",
"a. c #A8E5A2",
"s. c #B1E5A4",
"d. c #B6ECA0",
"f. c #BBE8AD",
"g. c #BCE6B6",
"h. c #A7F7B0",
"j. c #CBC69E",
"k. c #DEC89F",
"l. c #E5C59E",
"z. c #C2DFA5",
"x. c #D3DDA9",
"c. c #DFCCBB",
"v. c #C0DEB8",
"b. c #C1DCB3",
"n. c #DCDBB2",
"m. c #DCD3B6",
"M. c #EBCCAD",
"N. c #EBCCBA",
"B. c #E1D9BD",
"V. c #E5D5BB",
"C. c #F2DFBE",
"Z. c #CBF3AC",
"A. c #CFE8B1",
"S. c #C6EBBF",
"D. c #C4E3B7",
"F. c #D9E7BA",
"G. c #CDF5B9",
"H. c #E0E1B5",
"J. c #FDCBC2",
"K. c #E8D9C6",
"L. c #E8D2C4",
"P. c #F1DDC4",
"I. c #EFDDD0",
"U. c #EFDDDB",
"Y. c #EED4D3",
"T. c #FBD0D1",
"R. c #F7DFD3",
"E. c #F6D1DE",
"W. c #D4EEC1",
"Q. c #D8E9C7",
"!. c #D9E1CC",
"~. c #D7FDCE",
"^. c #DCFECB",
"/. c #DDFDD1",
"(. c #E8E2CA",
"). c #E2FECE",
"_. c #E3ECD5",
"`. c #EAE6D6",
"'. c #E4FFD7",
"]. c #EBFDD7",
"[. c #E4F4DB",
"{. c #EDF7DF",
"}. c #E5FFDC",
"|. c #ECFCD8",
" X c #F1FDD5",
".X c #F1F7DD",
"XX c #FFF0DE",
"oX c #F2FFDF",
"OX c #FEF9DB",
"+X c #E6F7E4",
"@X c #EFF0E2",
"#X c #ECFFE4",
"$X c #EDF7EE",
"%X c #EDFEEB",
"&X c #E2F8E3",
"*X c #F7F5E3",
"=X c #FFF5E3",
"-X c #F3FEE4",
";X c #FCFBE5",
":X c #F5F3EE",
">X c #FFF6EC",
",X c #F4FEEC",
"<X c #FBFEEB",
"1X c #FFEEFF",
"2X c #FFEFFD",
"3X c #ECFCF4",
"4X c #EBF0FF",
"5X c #EDFEFC",
"6X c #EBF5F4",
"7X c #F4F7F4",
"8X c #FDF3F2",
"9X c #F4FEF3",
"0X c #FCFDF5",
"qX c #F5F4FC",
"wX c #F9F5FF",
"eX c #FFF6FE",
"rX c #FEF5FE",
"tX c #F5FEFB",
"yX c gray98",
"uX c #FFFAFF",
"iX c #FFFAFE",
"pX c #FFFEFF",
"aX c #FDFCFD",
/* pixels */
"h.<.j i } <.X./ { { { p i k { +.@ % } } * * i } i i p p r % } w.",
"=.{ # y i { j % a Q i p a j 7 8 a i 7 i a % 7 7 j j { } ..c ..-.",
"! a # y r % * # a { { i a j { r } | a a { { | a j j { { o.l l Q ",
"p # @ g _ } O. .{ o.} } % j | p ~ 7 a % ! ~ | a p i 8 w } % a s ",
"{ % X q.I U D V ` 5 ( 0.-.5 % ) a.) r X 0.9.E 3 V ' K K 8.X r t ",
"{ { 5./.,X0X,X-X).4.e.oX'.[ 3 R -XZ.#._  X].*.w %X%X,XoX/.:.} #.",
"a { =.#XuXeXyX0X:XW H uXaX) i F.0Xz.8 W ;X<XD 9 aXaXeX0X#X;.h i ",
"# % &.%XuX1XwXuXuX..B eXwX6 * {.9XP { / -X9Xp.i uXuXrXuX,X>.j * ",
"Q { { tXwX=X$XuXyX! i 9XeXF W #X=X3.x _ 9XqXQ ! ,X1X4XyX X} + X.",
"{ { { tXrXC.Q._.!.8 p [.eXg.s.*XP.,...( 9XyX{ 8 ~.eXaX&XG.{ i ..",
" .{ } tX3XJ $.$.L   r v.uX+X[.eXj.^ O.q ,XaX{ i S U.3Xr.' i s ..",
"i a } aXtX< } i W # # Y aXtXtXeXG h  .q 9XuX8 i ! I.9X;.7 s p { ",
"i i ! tX5X1 { *  .# # ` %XuXeXrXB % i q 0XuX0 p i K.,X/ % a 8 { ",
"* l } yX1Xl.x.x.i o r w ^.eXeX_.] * i e aXuX- p a I.0X] # a 8 { ",
"a | ..tXuXXX,XyXa / } t d.yXyXy.} * i ) tXaX; { i Y.aX] y l ! } ",
"} { ..5XqX0X5XtX% <.X.. ( 9X9XA Q a p 7.tXtX; { } E.eX' u l / } ",
"} { { tXuX,XtXwXf x v i T uXyXD.p r { ) 9XaX= j i E.uX] i { p { ",
"p { { tXuX X-X>Xt j c } f.eXuX}.! i { ) 0XuX: j i E.uX] i { p { ",
"% % } 9X6X*.,.b r % | ] /.eXeX9XW p { ( 0XuX: { i E.uX] i { p { ",
"r a X.tX9X> p t i a i Z ,XuXeXaX*.! { ( 0XuX> { i E.uX] i { p { ",
"a a } 9X$X> p d / a } U ,X@X:XuXs.] { ( aXuX> { i E.uX] i { p { ",
"* j } aX7X7.^ ..Y 7 } S.,Xu.D.uXW.A } 6 9XaXC i i E.uX] i { 8 { ",
"Q { } aX2Xn.m.N.b.X } }.<XA 9.0X.XS } _ tXuXC a i E.uX] i { p { ",
"X...} aXeXOX0XuX;X@.} ,X<XW ] ;X<XG ! _ tXuX: * i E.uX] i { p { ",
"| j &.#XaXaXtX,X9X{ ~ aX_.u @ 5X8Xc.p p :X3XE p ] R.8X*.# { ..Q ",
"a j :.#XuXeXuXyX0X=.R 8Xi.3 j yXyX`.Q 5 yXaXN { ! (.>X-.@ % Q } ",
"i i :.'.7XeXaXtX<X9.H.-Xt.{ 1.[.yX*X@.W 0X0XZ 2.O.W.|.4.# % Q { ",
"p { ` A.L.T.T.J.M.M k.F.V 8 l I B.n.C , V.B.B ( j 0.f.! * i 7 i ",
"{ l $ ..%.m n v X.z x o.% s a 8 <.<.j * / $.k & j W ` 5 * | p r ",
"/ l * { _ +.f 2 w O.j @ t 4 i * i { +.{ r 7 * i O.{ } } | | p a ",
"_ { * a { { % . a l  .i a i c { { | X.{ a p | } Q $ r } { j p | ",
"_ i * a ...... .l O 6.! { / n ` } k ..z * f { X.@.& % } ..{ { j "
};
