/* XPM */
static char *_76020f505c14581c4f71ed20587cc5eqIziBbwA0tZMoViS[] = {
/* columns rows colors chars-per-pixel */
"32 32 79 1 ",
"  c #997A5D",
". c #9A7B5E",
"X c #9B7C5D",
"o c #9B7C5F",
"O c #9C7D5E",
"+ c #9D7E5F",
"@ c #9C7D60",
"# c #9D7E61",
"$ c #9E7F60",
"% c #9E7F62",
"& c #9F8061",
"* c #9F8063",
"= c #A08162",
"- c #A18263",
"; c #A08164",
": c #A08165",
"> c #A18265",
", c #A08365",
"< c #A28364",
"1 c #A18266",
"2 c #A28366",
"3 c #A28367",
"4 c #A38465",
"5 c #A38467",
"6 c #A28567",
"7 c #A48566",
"8 c #A58667",
"9 c #A28468",
"0 c #A38468",
"q c #A38569",
"w c #A38668",
"e c #A48568",
"r c #A48569",
"t c #A58669",
"y c #A48769",
"u c #A68768",
"i c #A4866A",
"p c #A5866A",
"a c #A5876B",
"s c #A6876A",
"d c #A6876B",
"f c #A78869",
"g c #A5886A",
"h c #A7886B",
"j c #A6896B",
"k c #A6886C",
"l c #A7886C",
"z c #A7896D",
"x c #A78A6C",
"c c #A8896A",
"v c #A98A6B",
"b c #A8896C",
"n c #A8896D",
"m c #A98A6D",
"M c #A88B6D",
"N c #AA8B6C",
"B c #A88A6E",
"V c #A98A6E",
"C c #A98B6F",
"Z c #AA8B6E",
"A c #AA8B6F",
"S c #AB8C6D",
"D c #A98C6E",
"F c #AB8C6F",
"G c #AA8D6F",
"H c #AC8D6E",
"J c #AD8E6F",
"K c #AA8C70",
"L c #AB8D71",
"P c #AB8E70",
"I c #AC8D70",
"U c #AC8D71",
"Y c #AD8E71",
"T c #AC8F71",
"R c #AE8F72",
"E c #AE8F73",
"W c #AF9073",
"Q c #AF9074",
"! c #B09174",
/* pixels */
"*o.##o.#e#*;ee*;#eeee;o#5e=O7ve7",
"#..#*###;o#*;;###5eehe;e5h75hh=#",
"o..#***;;;e;;e*;;eeehhem5vh7h7=*",
"#oo#*;;;;em;;e;;eheeeeee7e7557ev",
"####*;;*;;h;#;;;mhee5eee7775=7vJ",
"*;*#*;;#e5m;;e;emeee5eme75ev77hv",
"*;;#;5;*memeemeFmeeeehmhe;eFv7he",
"#;;#;e5;h;eeee5mFeehemmee=7mvevv",
"5=;5**=O;e;;me;;emmmme5I7Je=7;=v",
"*=7h=*5;;e;;ee5emFmmme5F7Jh7ve;v",
"o*hhOO7he;ee;emmehmmFmm!7FvhJm7h",
"OO75oo5he;eh;emmeehmFmF!hvehJJee",
"7=;=O#77e;em5eFmFmmFmeemvv77FFhe",
"v555=5e5e5eheemmIhmFmeehmv77vvhe",
"7=57=;5=ehe5ehemFemImmFmFveehvh7",
"oO;7*#*Omm;;ehem!mFImmmhFvvvvvh7",
"OO;;#=vve;Fm5mmImllFFFFhFmmheehm",
"==eh;;hem;he5mmmFmmmFmhhmmmhehmF",
"==ev77h5F5eeemmehhlmFFmhhmmhehmF",
"OO=757e;heeeemhelllFFFhqmFFheehh",
"*O=7;7e;;eehhemmPFFFlhq*mIFhehme",
"h;7757e;#eemmemFhhhhllFhemFhemmm",
"h;577ee=5m5ememFq55elFPWemFeemFh",
"=O#55ee=mI;;memmFlhhhhlleIIhemme",
".*o5me5e;;;emIIQleqemmleWIheemme",
";e*eIheemmeellkeleqqlmmmFmhehFFh",
"55#5mee5keeelmlemhqqkKPPmmmemFme",
";;.;e;5;;;3emmmmmlqqkmmPmFmmmme;",
";;o;e;e533qelleemleeelllmmmhhme;",
"*#.;;#e;eq;qeeeqllllleqqehheemme",
"#oo;#.;#q;;;eekeeeeekeqqeee5emmm",
";;;h;#5;ee3;3qqqqqeeeeeehme;;emm"
};
