/* XPM */
static char *f9e379a444a14506f4bf62d183c9b84a2HQmFkpUzncCvXXH[] = {
/* columns rows colors chars-per-pixel */
"32 32 156 2 ",
"   c #012C7B",
".  c #ED0B15",
"X  c #ED0E19",
"o  c #F20E19",
"O  c #F10B15",
"+  c #EC1117",
"@  c #ED131D",
"#  c #F1131D",
"$  c #EE1621",
"%  c #ED1B24",
"&  c #F21521",
"*  c #F31923",
"=  c #DA393F",
"-  c #E1212E",
";  c #EB232E",
":  c #F2252E",
">  c #ED2B33",
",  c #E8393E",
"<  c #F43139",
"1  c #D83B42",
"2  c #EF3C43",
"3  c #F43640",
"4  c #F13840",
"5  c #907155",
"6  c #9F7857",
"7  c #957659",
"8  c #977A5C",
"9  c #9C7C5D",
"0  c #A07E5D",
"q  c #9C7E61",
"w  c #A17F62",
"e  c #AA7F67",
"r  c #A37A68",
"t  c #AD7868",
"y  c #AB7666",
"u  c #BE7064",
"i  c #B27A66",
"p  c #BE736E",
"a  c #B37D6B",
"s  c #B87F6C",
"d  c #BF7572",
"f  c #CE494E",
"g  c #D3464C",
"h  c #CE5B5E",
"j  c #CB565E",
"k  c #DA5357",
"l  c #D95C58",
"z  c #E04243",
"x  c #E8474C",
"c  c #E14F52",
"v  c #F04D52",
"b  c #E35557",
"n  c #ED5057",
"m  c #EF545A",
"M  c #F0565E",
"N  c #E0605F",
"B  c #CB5E61",
"V  c #EC5961",
"C  c #C66763",
"Z  c #CB6363",
"A  c #C46966",
"S  c #C96768",
"D  c #C36F6C",
"F  c #CC6C6D",
"G  c #D96862",
"H  c #DC6868",
"J  c #D66464",
"K  c #C1796A",
"L  c #D6756F",
"P  c #DD716E",
"I  c #C77172",
"U  c #CF7672",
"Y  c #CC7C74",
"T  c #C97B7A",
"R  c #D27B74",
"E  c #E16162",
"W  c #EF626A",
"Q  c #F06167",
"!  c #F86D70",
"~  c #EF7479",
"^  c #9E805E",
"/  c #A2815F",
"(  c #978364",
")  c #9D8264",
"_  c #998965",
"`  c #9E8569",
"'  c #9E8C6D",
"]  c #9E8F70",
"[  c #9F9476",
"{  c #A38465",
"}  c #A98665",
"|  c #A58866",
" . c #A98867",
".. c #A48669",
"X. c #AB846B",
"o. c #A48A6B",
"O. c #A98B6C",
"+. c #B4856E",
"@. c #B9826E",
"#. c #A4916E",
"$. c #A38B73",
"%. c #A98C70",
"&. c #B48170",
"*. c #BC8273",
"=. c #B48A73",
"-. c #A49372",
";. c #A89575",
":. c #A59876",
">. c #AF9D77",
",. c #A49478",
"<. c #AD937A",
"1. c #B19071",
"2. c #B09079",
"3. c #B0987C",
"4. c #C0837E",
"5. c #C18A75",
"6. c #012E82",
"7. c #003281",
"8. c #043987",
"9. c #083D89",
"0. c #0C4B92",
"q. c #1C559C",
"w. c #597EAB",
"e. c #698AB3",
"r. c #7EA9CB",
"t. c #B98F83",
"y. c #AF9680",
"u. c #A69F82",
"i. c #AB9A83",
"p. c #FE8083",
"a. c #F08B8F",
"s. c #F18E91",
"d. c #F09497",
"f. c #FF9693",
"g. c #F5969A",
"h. c #EF9FA0",
"j. c #F39EA1",
"k. c #F4A6A6",
"l. c #FBA4A5",
"z. c #E9ACB3",
"x. c #F7B5B7",
"c. c #94B9D6",
"v. c #A5BAD1",
"b. c #F5D7D9",
"n. c #D5DFE8",
"m. c #F6E6E7",
"M. c #FFEAE9",
"N. c #EBF0F3",
"B. c #F8F5F4",
"V. c #FFF8F6",
"C. c #F5F6F8",
"Z. c #FAFFFF",
"A. c white",
"S. c #FFFEFF",
"D. c #FEFFFE",
"F. c #FFFFFE",
/* pixels */
"8 { 9 8 w ) { ) ) ) { { ` ` ) o.) ( o.o...o.) ..{ O.{ q {  .O.{ ",
"{ q q { { 7 8 { ..9 ` ( *.R J N E H Y *.' ..9 ..o.{ O.{ ..O.{ q ",
"w 7 { { { ) { ) ` $.P 4 : # @ @ @ @ # : 2 L 3.o... .{ o..... .q ",
"5 { 9 { q ..q o.U < @ % % % % % % % % % % # 3 Y -.O.O.{ { ..O.O.",
"../ ) 9 { 9 $.c * % % % % % % % % % % % % % % * k ;.q { ..{ O.{ ",
"9 ) { 0 9 -.x # % % % % % % % % % % % % % % % % * b -.O.{ { O...",
"9 { { q ` b & % % % % % % % % % % % % % % % % % % & G ;.} O.O./ ",
") 8 { { K & % % % % % % % % % % % % % % % % % % % % * +.{ O.| O.",
"{  .w :.> % % % % % % % @ @ % % % % % % % % % @ @ % $ , o.| o.O.",
"/ 0 | u & % % % % % $ . n M @ @ % % % % % @ . m m X @ & 5.{ O. .",
") { O.z $ % % % % @ v Z.Z.Z.Z.W @ % % % @ V Z.Z.Z.Z.m X l o.O.O.",
"/ q _ ; % % % % % % Z.Z.Z.D.v.Z.2 $ % % > Z.Z.Z.C.v.Z.> ; >.o.{ ",
"{ ` 2.# % % % % @ a.Z.Z.Z.8.7.0.l.@ % @ j.Z.Z.D.7.7.q.f.. <.O.O.",
"{ 9 a # % % % % @ k.Z.Z.N.  9.6.z.@ % X x.Z.Z.n.  9.6.l.O =.{ O.",
"{ { a # % % % % @ Q Z.Z.Z.e.  r.p.@ % @ ~ Z.Z.Z.w.  c.! o =.O.O.",
"{ 9 a # % % % % % . b.Z.Z.Z.Z.V.@ % % % . m.Z.Z.Z.Z.M.@ # X.O.{ ",
"0 ) i # % % % % % % + s.B.B.h.$ % % % % % @ g.B.B.d.@ % # +.O.O.",
"{ { t & % % % % % % % @ . . @ % % % % % % % @ . . @ % % # e { O.",
"{ ^ @.# % % % % % % % % % % % % % % % % % % % % % % % % # =.O.1.",
"9 ..a @ % % % % % % % % % % % % % % % % % % % % % % % % # e O.{ ",
"q 9 @.# % % % % % % % % % % % % % % % % % % % % % % % % # =.%.O.",
"O.( s @ % % % % % % % % % % % % % % % % % % % % % % % % # +.o.{ ",
"} { a # % % % % % % % % % % % % % % % % % % % % % % % % # =.O.O.",
"{ { i # % % % % % % % % % % % % % % % % % % % % % % % % # X.O.o.",
"6 9 y # % % % % % % % % % % % % % % % % % % % % % % % % # +.O.X.",
"{ O.i # % % % % % % % % % % % % % % % % % % % % % % % % # X.O.{ ",
"{ ) @.# % % % $ @ % % % % % % @ @ % % % % % % $ @ % % % # =.o.o.",
"{ 9 &.# % % # g B @ % % % % X Z j @ % % % % # = S @ % % # =.{ O.",
"{ o.r # % # A [ #.p # % % # *.' -.4.X % % @ 1 u.o.t.@ % @ O.o.w ",
"9 q i.+ o C ) 9 O.' f # o h ] O...-.Z # # - i.( O.o.d o . i.{ ..",
"{ 7 { T D O.q ..) { ,.A F ,...o...{ ,.D h y.{ o.O.{ #.T I o.O.X.",
"{ { ) ( { q O.w ........O.` $.O.) O.%.o.o...O.{ { O.O.{ ' { O.O."
};
