/* XPM */
static char *_e05d159721147d7af7e3ab48253c290fqRwMyC9v68bVcQc[] = {
/* columns rows colors chars-per-pixel */
"32 32 177 2 ",
"   c #EE0102",
".  c #E60D00",
"X  c #ED0D01",
"o  c #F50201",
"O  c #FD0101",
"+  c #F60B04",
"@  c #F90A05",
"#  c #FD030A",
"$  c #FE0E09",
"%  c #E91101",
"&  c #FF120D",
"*  c #F70F1C",
"=  c #FB0B1A",
"-  c #FF1710",
";  c #FF1912",
":  c #FC141E",
">  c #D9291A",
",  c #EA231E",
"<  c #DF2E23",
"1  c #D63225",
"2  c #EE2720",
"3  c #E32C24",
"4  c #EA2E24",
"5  c #E52E28",
"6  c #F42925",
"7  c #E33224",
"8  c #E2372D",
"9  c #EF3331",
"0  c #E63F36",
"q  c #EF3935",
"w  c #E33B3B",
"e  c #F43233",
"r  c #BD432C",
"t  c #BE5D3A",
"y  c #C2442B",
"u  c #C14730",
"i  c #DB403C",
"p  c #D3493E",
"a  c #C35D3A",
"s  c #CA5D3D",
"d  c #E2413F",
"f  c #C2623C",
"g  c #9C7F55",
"h  c #9F7B5D",
"j  c #AC7657",
"k  c #A67E5D",
"l  c #AB7C5C",
"z  c #B37556",
"x  c #B57B54",
"c  c #BB7D55",
"v  c #B2765A",
"b  c #BA765B",
"n  c #B37B5D",
"m  c #BB7B5E",
"M  c #AE7763",
"N  c #A67D63",
"B  c #AB7E63",
"V  c #AD7F68",
"C  c #BB7662",
"Z  c #B47C63",
"A  c #BB7D66",
"S  c #B37E69",
"D  c #BD7F6D",
"F  c #DD4C44",
"G  c #D95245",
"H  c #D45A43",
"J  c #DB5946",
"K  c #DC5C49",
"L  c #E44541",
"P  c #E04D46",
"I  c #E05A48",
"U  c #C56340",
"Y  c #D86747",
"T  c #D56D4B",
"R  c #D96C4D",
"E  c #D1704D",
"W  c #C07F57",
"Q  c #C2765D",
"!  c #C67B5A",
"~  c #C97F5C",
"^  c #C77760",
"/  c #C17960",
"(  c #CA7A63",
")  c #C37C6B",
"_  c #C47F71",
"`  c #CA7D72",
"'  c #878F5E",
"]  c #9F865C",
"[  c #9C895F",
"{  c #95985F",
"}  c #A08057",
"|  c #A88253",
" . c #A4845C",
".. c #AA835D",
"X. c #A48B5E",
"o. c #AC8A5D",
"O. c #B78157",
"+. c #B88256",
"@. c #B6845D",
"#. c #B08A5D",
"$. c #9D8263",
"%. c #968E67",
"&. c #9D8B63",
"*. c #968E69",
"=. c #9E8E6A",
"-. c #9F9162",
";. c #9C9F66",
":. c #9F9571",
">. c #9E9D70",
",. c #A58363",
"<. c #AC8463",
"1. c #A38C64",
"2. c #AC8B64",
"3. c #A58669",
"4. c #AD846A",
"5. c #A58C6B",
"6. c #AB8A6B",
"7. c #B38464",
"8. c #BA8464",
"9. c #B38A65",
"0. c #BB8B63",
"q. c #B4846B",
"w. c #BB846B",
"e. c #B38B6C",
"r. c #BB8A6C",
"t. c #A49465",
"y. c #AB9365",
"u. c #A3936A",
"i. c #A9916B",
"p. c #AA956B",
"a. c #AB936D",
"s. c #AE956C",
"d. c #AC946C",
"f. c #A49868",
"g. c #A99A6B",
"h. c #B79067",
"j. c #B29466",
"k. c #B2946A",
"l. c #B9916A",
"z. c #B1996D",
"x. c #AF8B71",
"c. c #AB8E72",
"v. c #B48571",
"b. c #B58770",
"n. c #BA8670",
"m. c #B38970",
"M. c #B58A71",
"N. c #B38E71",
"B. c #B48C72",
"V. c #BC8870",
"C. c #BD8876",
"Z. c #BC8C74",
"A. c #A99072",
"S. c #AE9572",
"D. c #A29970",
"F. c #A59971",
"G. c #AA9C75",
"H. c #B29271",
"J. c #B49A72",
"K. c #9DA069",
"L. c #9DA36B",
"P. c #98A071",
"I. c #A4A46E",
"U. c #B7A077",
"Y. c #C2845D",
"T. c #C6805C",
"R. c #CC825F",
"E. c #D1835F",
"W. c #C18B67",
"Q. c #C3846D",
"!. c #C38D6A",
"~. c #D28460",
"^. c #C08170",
"/. c #C98472",
"(. c #C18D75",
"). c #CC8478",
"_. c #C98A79",
/* pixels */
"&.k j n ..}  .l 2.z  .1.e.w.C =.=.A 6.w.1. .l ..7.9.o...8.r.e.5.",
"N l l l ..k l n <.n l 3.<.4.2.j v u.6.e.e.4.r.8.Z 8.....9.9.<.k ",
"v l k ,.<.7.S q.N 3.A q.B 2.2.i w i.7.4._ q.N.q.w.w.r.e.9.9.7.n ",
"n l h h B 4.N ,.4.x.C.D A p.x * = x d.w.` b.M.M.3.4.M.q.3.2.9.W.",
"....,.N 4.e.3.i.7.N A.Z N ;.t # # s K.8.V 6.4.e.p.<.M.q.B 6.9.h.",
"} ..q.V 4.q.z ! 2. .P.,.1.#.3 O O 6 #.7.*.D.1.y.R.z e.m.4.r.9.2.",
" .7.q.N ,.z r < R c l.e.k.K # O o # J a.a.!.Y.E 7 r n e.4.Z.r.9.",
"7.Z S ,.a.~ 7 # # 1 F Q l.0   X X # e f./ G 8   # > ~ U.6.w.8.9.",
"X.<.,.e.<.o.Y o o O o + ; & O O O o $ ; + o O o o T y.7.q.N 7.o.",
"m 8.6.6.N ] c 1 O O o o @ o o O O o o @ o o O O 7 ~ 2.4.N.a.9.@.",
"g n w.C.$.' 9.F o o o O o o O O O o o O O o o o L !.>.c.Z.w.9.-.",
"] ,.q.^.M $.9.Q + o O O O O O O O O O O O O o + m k.5.q._.(.e.2.",
"7.,.B Z l 1.k.9.; @ O O o O O O O O O o O o @ - j.z.1.4.Q.r.e.8.",
"8.4.2.t.{ | H 0 & o o O O O O O o O O O O o o $ q I @.;.g.d.6.7.",
") 2.2.x f 7 #   O o O O O O O o o O O O O O o o o # 4 a +.k.a.A ",
"&.j L : # O O + O O O O O o o O O o O O O O O O . O O o : L m a.",
"1.z w = # o O % O O O O O o o O O O O O O O O O X o O # = w m S.",
"C 1.y.c s 2 # o o o O O O O O o O O O O O O o O o # 6 s x p.S./.",
",.,.7.k.;.o.J 9 & o O O O O O o O O O O O O o $ e I 9.L.d.8.e.e.",
"Z l <.w.8.2.s.t.; @ O O O O O O O O O o O O @ & s.J.e.q.q.4.e.Q.",
"[ <.) ` 4.%.i.b + o O O O O O O O O O O O O o @ ^ J.:.q.` ) e.5.",
"1...N b.4.u.0.p o o o o O o o O O O O O O o o O F !.G.N.M.4.e.2.",
"o.7.6.m.V X.W 7 O O o o @ o o O O o o @ o o O O 5 ~ i.q.N.H.r.9.",
"o...k q.q.j.T o o O o + ; & O O O o $ & + O O o o R k.e.m.4.r.9.",
"l n Z 3.J.~ 7 # o < d m k.q o % X # e t.( P 5 o O 7 E.a.3.Z.r.9.",
"2.7.S 4.H.n u < R ! r.s.J.K # o O # G k.a.W.T.T 7 y z <.3.Z.r.6.",
"2.<.7.q.Z.q.z ! j.2.>.5.a.0.4 O O , o.e.*.F.p.j.~.x 8.M.M.Z.2.2.",
"<.<.<.4.q.4.3.a.q.B 5.q.e.I.U # # a L.q.4.N.e.Z.J.6.Z.Z.M.e.<.<.",
"@.7.,.,.4.4.4.6.4.6.q._ w.g.O.* = O.d.q.).B.N.N.6.4.V.M.6.e.7.Z ",
"j <.k ,.4.q.n.q.B 5.S q.q.2.k.d w g.9.4./.4.6.,.w.V.V.e.6.N.r.A ",
"N B l ..<.k Z n 8.r.4.6.q.6.a.m b a.6.q.e.2.e.7.8.e.2.<.7.r.Z.q.",
"1.4.n 8.9.} ..7.o.7.&.,.7.7.D 5.a.A 6.Q.&.1.9...9.k.2.<.7.A q.c."
};
