/* XPM */
static char *_f7c4e2491444ccc984f524cd95d38e2lyp0CJVcl5rwYZIe[] = {
/* columns rows colors chars-per-pixel */
"32 32 146 2 ",
"   c #A0764C",
".  c #A77E53",
"X  c #A97F56",
"o  c #A3775E",
"O  c #A67B5C",
"+  c #A97E5D",
"@  c #A77C60",
"#  c #AA7E63",
"$  c #AB7E68",
"%  c #A78049",
"&  c #AB844D",
"*  c #AC8454",
"=  c #AF8954",
"-  c #AD835C",
";  c #B38C54",
":  c #B0875D",
">  c #B38A5C",
",  c #BB9556",
"<  c #B6905B",
"1  c #BC955C",
"2  c #BE985A",
"3  c #AD8263",
"4  c #AF8861",
"5  c #AE826A",
"6  c #B18565",
"7  c #B48A64",
"8  c #B98F66",
"9  c #B2856B",
"0  c #B58A6B",
"q  c #B98E6C",
"w  c #BC9463",
"e  c #BC936C",
"r  c #AF8172",
"t  c #B38673",
"y  c #B68A72",
"u  c #B98D72",
"i  c #B3857A",
"p  c #B58979",
"a  c #B98C7A",
"s  c #BC9273",
"d  c #BD9178",
"f  c #C39D5C",
"g  c #C5A25C",
"h  c #C8A45C",
"j  c #CEAA5C",
"k  c #C09867",
"l  c #C49C6B",
"z  c #CBA666",
"x  c #CDAB61",
"c  c #CAA36A",
"v  c #D0AC62",
"b  c #D2AC6C",
"n  c #D6B16B",
"m  c #D9B46D",
"M  c #DEBC6C",
"N  c #D3AB77",
"B  c #D5AE79",
"V  c #D9B472",
"C  c #D7B27E",
"Z  c #DFB97B",
"A  c #E0BE67",
"S  c #E1BE6E",
"D  c #E1BC74",
"F  c #E1BB7A",
"G  c #E2BD79",
"H  c #E0BA79",
"J  c #E6CD56",
"K  c #E6CD56",
"L  c #E8CF58",
"P  c #EBD25B",
"I  c #EAD15A",
"U  c #FFE959",
"Y  c #E7C56C",
"T  c #E6C46B",
"R  c #E8C66D",
"E  c #E7C86E",
"W  c #EAC86F",
"Q  c #F4DB64",
"!  c #F6DD66",
"~  c #F7DE67",
"^  c #F5DC65",
"/  c #F8DF68",
"(  c #F8DF68",
")  c #E5C271",
"_  c #E5C173",
"`  c #E6C273",
"'  c #E8C571",
"]  c #E8C574",
"[  c #E9C675",
"{  c #E9C575",
"}  c #EBC970",
"|  c #EBC874",
" . c #ECCA70",
".. c #E6C17D",
"X. c #EBC779",
"o. c #EAC978",
"O. c #F8D875",
"+. c #F4D17F",
"@. c #FAD97A",
"#. c #FCDB7C",
"$. c #FFDF7C",
"%. c #FCDC7A",
"&. c #FFE663",
"*. c #FFE464",
"=. c #FFEB65",
"-. c #FAE16A",
";. c #FBE26B",
":. c #FFE36B",
">. c #FCE36C",
",. c #FDE46D",
"<. c #FEE56E",
"1. c #FFE66F",
"2. c #FEE56D",
"3. c #FFE96C",
"4. c #FFEA6D",
"5. c #FFEC6E",
"6. c #FFEB6D",
"7. c #FFE770",
"8. c #FFE770",
"9. c #FFE871",
"0. c #FFE972",
"q. c #FFEA73",
"w. c #FFE974",
"e. c #FFEB74",
"r. c #FFEA75",
"t. c #FFEC75",
"y. c #FFED76",
"u. c #FFEE77",
"i. c #FFEA73",
"p. c #FFE57E",
"a. c #FFE47F",
"s. c #FFE27C",
"d. c #FFEB7D",
"f. c #B58980",
"g. c #F5D281",
"h. c #F6D384",
"j. c #FFDF80",
"k. c #FFE083",
"l. c #FFE184",
"z. c #FFE584",
"x. c #FFE485",
"c. c #FFE685",
"v. c #FFE383",
"b. c #FFEA80",
"n. c #FFEA82",
"m. c #FFEB88",
/* pixels */
"+ O @ @ @ + O - r $ O 9 p t 5 - O 6 0 9 t r r $ : 6 6 O 9 0 0 3 ",
"+ @ + + 3 6 3 + 3 O - 3 5 5 O > > O 9 9 9 6 - 3 6 7 q 6 q 6 3 3 ",
"@ O O + 3 3 9 $ > * w - 3 9 . b n * 9 y 7 > : q 5 9 0 7 q 3 3 3 ",
"3 @ + 3 3 @ 9 9 3 - 0 @ $ 3 ; g.@.1 5 t 7 ; 6 y u u 0 6 7 3 6 0 ",
"@ @ O - + + 6 + 5 9 y t 5 X h a.r.v @ i y 3 y i + 7 - - 3 6 q u ",
"3 9 3 @ O - w % 3 6 5 t 5 > A r.4.Y > 5 t @ 0 5 & w > 7 6 6 q q ",
"O 3 $ 9 3 w G _ f < : 3 + c #.5.4.$.z O @ - 1 f _ H w e y 9 0 7 ",
": 3 $ t O % D x.l.' b w - Z m.&.:.b.S ; e B { a.x.{ ; 3 9 9 0 7 ",
"r - > - 5 + , k.9.9.y.~ L ~ y.<.<.y.Q L / y.9.9.x.f 3 9 7 > 3 p ",
"0 - * - 5 3 ; | r.;.<.9.<.<.9.<.>.y.9.>.<.7.<.7.} 2 0 y > * - u ",
"O - w 7 5 o * b y.<.<.r.y.7.<.7.<.9.y.r.7.<.<.9.m > 3 9 8 w > 0 ",
"@ + : 3 5 $ + w Q 9.9.<.<.<.<.9.7.>.<.7.<.7.7.;.w 3 y a q 8 7 0 ",
"9 5 9 3 $ $ O - J <.y.<.<.9.9.9.9.<.9.9.<.9.<.I > - 9 y u s y t ",
"y 9 6 - . > c V ~ 9.9.<.9.7.<.9.9.9.9.9.<.9.9.~ H c > * - 0 y t ",
"0 - * ; h T j.m.y.y.9.<.<.<.<.9.9.7.7.<.<.7.r.r.b.$.T j , * 6 0 ",
"  > b g.s.7.4.&.;.<.9.7.7.9.9.<.9.<.<.9.r.<.>.<.&.=.<.s.+.V w - ",
"O > n O.7.3.4.<.>.<.<.<.<.9.9.<.7.9.<.<.9.7.;.<.*.4.4.9.@.V e 9 ",
"6 X = 2 v T $.b.y.r.7.<.7.<.<.7.<.9.9.>.<.9.9.r.d.s.W v 2 > 7 s ",
"- 3 9 3 + 7 z M ~ 9.9.7.9.9.<.7.<.9.r.7.<.r.7.Q S b w @ 5 0 0 q ",
"O 3 9 9 t t - = J <.y.<.7.9.9.9.7.<.9.9.7.9.>.I > 7 y p t y 0 0 ",
"$ - - - 0 9 3 8 ~ 9.9.>.<.<.<.9.9.>.<.7.<.<.9.;.e 9 u u 7 7 9 t ",
"t 7 ; = - - - N u.<.;.9.y.7.<.9.7.7.r.r.<.;.7.r.B 7 6 6 ; 1 q p ",
"y - = - y 9 < ` y.;.<.9.<.7.9.<.<.9.9.<.<.<.<.7.' 1 u u - > 7 a ",
"3 O : 9 i $ , a.9.9.y./ I / y.>.<.7.Q P ;.y.r.9.d.h t i t e 0 9 ",
"- + $ 9 6 & _ x.b. .V w - H d.U 3.b.M = e C o.b.k.o.; O y y q 7 ",
"- 3 $ y s w H { f 2 > 3 3 c s.=.e.s.z - 3 7 w g X...k 7 u y q 7 ",
"6 6 3 6 0 > w ; 3 0 5 p t 7 R 4.5.E 7 r t 3 s t ; l 7 6 0 0 u 0 ",
"9 9 3 3 3 3 7 O r t r a a - v k.r.x @ i y 7 d f.3 q 7 7 q 0 0 3 ",
"3 3 + 6 3 6 y t 9 3 3 9 y 3 1 h.@.1 5 p 7 > 4 t a d 0 q q 0 9 5 ",
"3 O O 6 3 3 3 $ 0 - > 6 0 9 - B V - 9 y 7 < - 0 9 9 9 6 0 6 0 u ",
"+ + @ 9 3 6 3 3 9 3 : - 6 9 - 8 w - 0 9 5 3 - 3 0 0 0 9 6 9 0 q ",
"+ 3 9 0 O 3 - : i t 6 3 9 9 0 6 3 0 0 9 r i p t 7 7 0 3 5 u q 6 "
};
